<svg version="1.1" id="Layer_1" xmlns="http://www.w3.org/2000/svg" xmlns:xlink="http://www.w3.org/1999/xlink" x="0px" y="0px"
	 width="100%" viewBox="0 0 349 159" enable-background="new 0 0 349 159" xml:space="preserve">
<path fill="#FEFEFE" opacity="1.000000" stroke="none" 
	d="
M350.000000,126.000000 
	C350.000000,137.328415 350.000000,148.656845 350.000000,159.988953 
	C233.722031,159.992630 117.444069,159.992630 1.083050,159.992630 
	C1.083050,107.078468 1.083050,54.156761 1.083050,1.117528 
	C117.333267,1.117528 233.666611,1.117528 350.000000,1.115450 
	C350.000000,40.096474 350.000000,79.079582 349.585724,118.537201 
	C348.068451,119.059219 346.965424,119.106705 345.545166,119.075531 
	C343.957703,119.231911 342.687500,119.466942 341.417297,119.701981 
	C342.007263,120.148491 342.597229,120.595009 343.111084,121.431076 
	C342.959076,122.872948 342.883209,123.925255 342.462585,124.982315 
	C341.539764,125.522545 340.961670,126.058029 340.383575,126.593513 
	C341.361847,127.302475 342.281952,128.478394 343.332245,128.609207 
	C344.848267,128.798035 346.458710,128.228683 348.268250,127.872795 
	C348.691589,127.466187 348.875580,127.169617 349.192688,126.704254 
	C349.572754,126.384941 349.797485,126.206451 350.000000,126.000000 
M264.084106,66.998001 
	C275.980133,66.998001 287.876160,66.998001 299.632568,66.998001 
	C299.632568,47.863087 299.632568,29.487244 299.632568,11.073365 
	C280.697968,11.073365 262.128632,11.073365 243.005585,11.073365 
	C243.005585,23.231602 243.005585,35.157261 242.105713,47.345776 
	C237.504990,47.345776 232.904266,47.345776 228.355927,47.345776 
	C228.355927,59.256207 228.355927,70.594513 228.355927,81.693176 
	C240.091217,81.693176 251.466766,81.693176 263.167816,81.693176 
	C263.167816,76.591133 263.167816,71.797211 264.084106,66.998001 
M39.678440,130.131271 
	C50.046394,129.181366 54.465286,126.087837 56.380539,117.569725 
	C58.742004,107.067032 58.541225,96.471985 56.457314,85.911224 
	C55.228107,79.681915 51.537769,75.472740 45.284130,74.861526 
	C38.763184,74.224190 32.064407,74.127449 25.566782,74.871696 
	C18.332144,75.700371 14.083125,80.671539 13.090141,87.820145 
	C12.316668,93.388481 11.887428,99.059784 11.945819,104.678665 
	C12.160607,125.347473 18.310482,131.072891 39.678440,130.131271 
M99.108139,113.290413 
	C99.047485,108.971825 99.280067,104.624962 98.867027,100.340340 
	C97.915054,90.464966 92.848053,85.721436 83.355362,85.976929 
	C80.003929,86.067131 76.681862,87.248703 73.346390,87.931992 
	C73.462990,87.700256 73.579597,87.468521 73.696198,87.236786 
	C70.004562,86.738274 66.312920,86.239754 62.291039,85.696648 
	C62.291039,107.004295 62.291039,127.510269 62.291039,147.928680 
	C66.641289,147.928680 70.704437,147.928680 75.070160,147.928680 
	C75.070160,141.259811 75.070160,134.874466 75.070160,128.337921 
	C85.385437,133.598343 99.024773,130.302170 99.108139,113.290413 
M271.448517,120.694366 
	C271.596100,112.597130 272.080261,104.487015 271.771179,96.407242 
	C271.570190,91.153870 268.516327,87.007195 262.995270,86.463394 
	C257.276306,85.900093 251.401199,85.916702 245.691910,86.553764 
	C240.395416,87.144745 236.723907,90.924904 236.324020,96.161461 
	C235.734528,103.880928 235.717667,111.711815 236.303955,119.430916 
	C236.736008,125.119438 240.743927,128.958923 246.376633,129.598785 
	C251.752243,130.209427 257.309357,129.993393 262.706238,129.404175 
	C267.122833,128.921967 270.249298,126.123360 271.448517,120.694366 
M108.594925,92.343613 
	C105.101059,101.535881 105.473335,110.908524 107.449814,120.305099 
	C108.463226,125.123009 111.513847,128.855133 116.335007,129.267715 
	C123.791145,129.905792 131.342102,129.435974 138.699310,129.435974 
	C138.699310,125.474434 138.699310,122.286758 138.699310,119.444031 
	C134.191452,119.692810 130.057846,119.924484 125.923798,120.148148 
	C121.027901,120.413033 119.115631,117.957138 119.477905,112.850128 
	C127.569656,112.850128 135.478271,112.850128 143.784805,112.850128 
	C143.784805,109.809082 143.788666,107.178841 143.784164,104.548615 
	C143.757797,89.117653 139.001678,84.675087 123.463890,85.592010 
	C121.804695,85.689926 119.939713,85.451500 118.537903,86.129425 
	C115.224617,87.731781 112.132919,89.792343 108.594925,92.343613 
M311.462463,78.909706 
	C311.462463,81.063766 311.462463,83.217819 311.462463,85.547020 
	C310.007324,85.965309 308.667572,86.350441 307.365601,86.724709 
	C307.365601,89.152771 307.365601,91.291748 307.365601,93.866928 
	C311.511780,93.436440 311.607849,95.997154 311.517883,99.103073 
	C311.349274,104.923889 311.291748,110.765091 311.579285,116.578468 
	C312.220398,129.541550 321.086182,134.373474 332.804260,128.419952 
	C332.804260,125.134415 332.804260,121.904655 332.804260,118.581856 
	C326.828278,121.108917 324.587463,120.391197 324.383392,115.558907 
	C324.089722,108.604385 324.308411,101.628220 324.308411,94.489769 
	C326.916138,94.232933 329.137482,94.014153 331.142639,93.816658 
	C331.142639,91.017609 331.142639,88.639572 331.142639,86.303040 
	C328.617004,86.126656 326.515869,85.979919 324.100891,85.811264 
	C324.100891,81.015114 324.100891,76.597939 324.100891,71.821205 
	C320.491943,72.643929 317.180206,73.093224 314.134491,74.245590 
	C312.937561,74.698456 312.335571,76.723740 311.462463,78.909706 
M278.874390,93.283440 
	C280.162567,93.796707 281.450745,94.309975 283.045074,94.945221 
	C283.045074,106.451714 283.045074,118.046906 283.045074,129.773834 
	C287.437164,129.773834 291.505859,129.773834 296.067017,129.773834 
	C296.067017,117.833183 296.067017,106.114494 296.067017,94.058311 
	C298.651367,94.058311 300.743805,94.058311 302.955872,94.058311 
	C302.955872,91.302902 302.955872,88.904839 302.955872,86.290054 
	C300.474152,86.154449 298.237366,86.032219 296.151733,85.918251 
	C295.018524,79.206673 299.834290,80.980522 302.866302,80.889351 
	C302.866302,77.838043 302.866302,75.218262 302.866302,72.669884 
	C291.606781,69.632736 285.357056,72.876556 283.108307,82.409073 
	C282.679962,84.224762 281.012695,85.748177 279.917053,87.406441 
	C279.550293,87.228531 279.183563,87.050621 278.816833,86.872711 
	C278.816833,88.700172 278.816833,90.527641 278.874390,93.283440 
M225.790970,93.291931 
	C225.790970,91.188553 225.790970,89.085167 225.790970,86.009201 
	C220.280975,86.009201 215.324738,85.802391 210.393356,86.064095 
	C204.835983,86.359016 200.418198,89.851204 199.106110,94.441948 
	C197.598938,99.715248 199.232864,104.415192 204.117416,107.992645 
	C206.655045,109.851219 209.674713,111.094765 212.047485,113.119141 
	C213.474716,114.336784 215.171371,116.859032 214.763550,118.185020 
	C214.285324,119.739998 211.711578,121.512093 209.944626,121.627586 
	C206.400024,121.859268 202.785995,121.029076 199.167328,120.633537 
	C199.167328,123.311043 199.167328,126.383698 199.167328,130.024368 
	C205.896393,130.024368 212.343735,130.507080 218.678009,129.868362 
	C223.557785,129.376297 227.167358,126.301399 228.327072,121.068199 
	C229.471313,115.904793 227.592194,111.912537 223.602661,108.808319 
	C221.511032,107.180832 218.918350,106.113609 217.079926,104.267570 
	C215.186874,102.366661 213.935745,99.826477 212.403748,97.566002 
	C215.243561,96.681358 218.048416,95.638260 220.942551,94.999817 
	C221.927460,94.782532 223.134430,95.806763 224.245377,95.820366 
	C224.752777,95.826576 225.273331,94.758163 225.790970,93.291931 
M170.547897,95.689064 
	C171.346375,95.142151 172.778214,94.653084 172.834366,94.038376 
	C173.085144,91.292526 172.943359,88.510826 172.943359,84.855865 
	C165.544388,88.297394 158.460327,85.168610 151.493942,86.405235 
	C151.493942,101.056885 151.493942,115.405296 151.493942,129.660278 
	C155.849899,129.660278 159.896576,129.660278 164.030899,129.660278 
	C164.030899,120.178810 164.009781,111.049385 164.041122,101.920135 
	C164.053940,98.185074 165.206497,95.340118 170.547897,95.689064 
M177.192169,115.493622 
	C177.192169,120.257111 177.192169,125.020592 177.192169,129.709244 
	C181.910294,129.709244 185.993591,129.709244 189.823761,129.709244 
	C189.823761,115.030396 189.823761,100.655960 189.823761,86.381393 
	C185.487015,86.381393 181.560562,86.381393 177.192169,86.381393 
	C177.192169,95.928841 177.192169,105.212097 177.192169,115.493622 
M178.888306,81.701370 
	C181.253708,82.141785 183.703232,83.191391 185.964691,82.879089 
	C189.312775,82.416718 192.189560,80.189552 190.834351,76.433784 
	C190.161636,74.569412 187.378540,72.389984 185.468658,72.310440 
	C182.852112,72.201462 179.778854,73.476089 177.681244,75.140579 
	C176.825790,75.819397 178.013931,79.073555 178.888306,81.701370 
z"/>
<path fill="#E6E6E6" opacity="1.000000" stroke="none" 
	d="
M350.000000,125.562500 
	C349.797485,126.206451 349.572754,126.384941 348.952545,126.818626 
	C348.395813,127.395462 348.212341,127.689140 348.028870,127.982826 
	C346.458710,128.228683 344.848267,128.798035 343.332245,128.609207 
	C342.281952,128.478394 341.361847,127.302475 340.383575,126.593513 
	C340.961670,126.058029 341.539764,125.522545 342.609070,125.278740 
	C344.163391,125.142921 345.226501,124.715424 346.559692,124.076447 
	C346.560333,122.888443 346.290802,121.911919 345.979828,120.639351 
	C345.913086,119.946938 345.887756,119.550560 345.862427,119.154190 
	C346.965424,119.106705 348.068451,119.059219 349.585724,119.005859 
	C350.000000,121.041664 350.000000,123.083336 350.000000,125.562500 
z"/>
<path fill="#FF9A35" opacity="1.000000" stroke="none" 
	d="
M243.005585,47.082920 
	C243.005585,35.157261 243.005585,23.231602 243.005585,11.073365 
	C262.128632,11.073365 280.697968,11.073365 299.632568,11.073365 
	C299.632568,29.487244 299.632568,47.863087 299.632568,66.998001 
	C287.876160,66.998001 275.980133,66.998001 263.555908,66.537979 
	C263.027679,60.017540 263.027679,53.957119 263.027679,47.082920 
	C256.074036,47.082920 249.539810,47.082920 243.005585,47.082920 
z"/>
<path fill="#050505" opacity="1.000000" stroke="none" 
	d="
M39.254707,130.161407 
	C18.310482,131.072891 12.160607,125.347473 11.945819,104.678665 
	C11.887428,99.059784 12.316668,93.388481 13.090141,87.820145 
	C14.083125,80.671539 18.332144,75.700371 25.566782,74.871696 
	C32.064407,74.127449 38.763184,74.224190 45.284130,74.861526 
	C51.537769,75.472740 55.228107,79.681915 56.457314,85.911224 
	C58.541225,96.471985 58.742004,107.067032 56.380539,117.569725 
	C54.465286,126.087837 50.046394,129.181366 39.254707,130.161407 
M34.562504,120.180428 
	C43.142929,119.879974 44.406139,118.923187 44.764942,110.407547 
	C45.043530,103.795700 44.950405,97.125153 44.392368,90.534042 
	C43.903370,84.758362 41.667831,83.481293 34.675331,83.566437 
	C27.824453,83.649864 25.512163,85.161674 25.192278,90.950806 
	C24.808468,97.896851 24.822973,104.887184 25.099920,111.841019 
	C25.361855,118.417915 26.789181,119.541039 34.562504,120.180428 
z"/>
<path fill="#040404" opacity="1.000000" stroke="none" 
	d="
M99.086319,113.757355 
	C99.024773,130.302170 85.385437,133.598343 75.070160,128.337921 
	C75.070160,134.874466 75.070160,141.259811 75.070160,147.928680 
	C70.704437,147.928680 66.641289,147.928680 62.291039,147.928680 
	C62.291039,127.510269 62.291039,107.004295 62.291039,85.696648 
	C66.312920,86.239754 70.004562,86.738274 73.696198,87.236786 
	C73.579597,87.468521 73.462990,87.700256 73.346390,87.931992 
	C76.681862,87.248703 80.003929,86.067131 83.355362,85.976929 
	C92.848053,85.721436 97.915054,90.464966 98.867027,100.340340 
	C99.280067,104.624962 99.047485,108.971825 99.086319,113.757355 
M82.893250,96.377426 
	C76.134628,95.565994 74.858391,96.652512 74.850357,103.237236 
	C74.845703,107.051453 75.127907,110.891731 74.773979,114.672829 
	C74.393394,118.738785 76.090675,120.630608 79.923759,120.794281 
	C83.659485,120.953804 85.968887,119.248451 86.046600,115.292618 
	C86.131134,110.989265 86.359566,106.663109 86.012436,102.388550 
	C85.856834,100.472450 84.452110,98.657799 82.893250,96.377426 
z"/>
<path fill="#050505" opacity="1.000000" stroke="none" 
	d="
M271.324738,121.078598 
	C270.249298,126.123360 267.122833,128.921967 262.706238,129.404175 
	C257.309357,129.993393 251.752243,130.209427 246.376633,129.598785 
	C240.743927,128.958923 236.736008,125.119438 236.303955,119.430916 
	C235.717667,111.711815 235.734528,103.880928 236.324020,96.161461 
	C236.723907,90.924904 240.395416,87.144745 245.691910,86.553764 
	C251.401199,85.916702 257.276306,85.900093 262.995270,86.463394 
	C268.516327,87.007195 271.570190,91.153870 271.771179,96.407242 
	C272.080261,104.487015 271.596100,112.597130 271.324738,121.078598 
M251.114380,119.759743 
	C254.412155,120.275162 258.483551,121.274857 258.986145,116.568466 
	C259.612518,110.702705 259.347260,104.698288 258.898285,98.797012 
	C258.806061,97.584663 256.254700,95.754730 254.746597,95.660957 
	C252.912201,95.546883 249.582123,96.647202 249.321564,97.779602 
	C247.667389,104.968475 246.253769,112.337456 251.114380,119.759743 
z"/>
<path fill="#050505" opacity="1.000000" stroke="none" 
	d="
M108.773270,92.005615 
	C112.132919,89.792343 115.224617,87.731781 118.537903,86.129425 
	C119.939713,85.451500 121.804695,85.689926 123.463890,85.592010 
	C139.001678,84.675087 143.757797,89.117653 143.784164,104.548615 
	C143.788666,107.178841 143.784805,109.809082 143.784805,112.850128 
	C135.478271,112.850128 127.569656,112.850128 119.477905,112.850128 
	C119.115631,117.957138 121.027901,120.413033 125.923798,120.148148 
	C130.057846,119.924484 134.191452,119.692810 138.699310,119.444031 
	C138.699310,122.286758 138.699310,125.474434 138.699310,129.435974 
	C131.342102,129.435974 123.791145,129.905792 116.335007,129.267715 
	C111.513847,128.855133 108.463226,125.123009 107.449814,120.305099 
	C105.473335,110.908524 105.101059,101.535881 108.773270,92.005615 
M124.522247,104.832062 
	C126.577896,104.832062 128.633545,104.832062 130.684555,104.832062 
	C130.597092,97.264870 129.210144,95.210793 124.789337,95.358002 
	C120.408600,95.503868 118.957932,97.868935 119.279449,104.832062 
	C120.707283,104.832062 122.158249,104.832062 124.522247,104.832062 
z"/>
<path fill="#030202" opacity="1.000000" stroke="none" 
	d="
M242.555649,47.214348 
	C249.539810,47.082920 256.074036,47.082920 263.027679,47.082920 
	C263.027679,53.957119 263.027679,60.017540 263.097748,66.540619 
	C263.167816,71.797211 263.167816,76.591133 263.167816,81.693176 
	C251.466766,81.693176 240.091217,81.693176 228.355927,81.693176 
	C228.355927,70.594513 228.355927,59.256207 228.355927,47.345776 
	C232.904266,47.345776 237.504990,47.345776 242.555649,47.214348 
z"/>
<path fill="#090909" opacity="1.000000" stroke="none" 
	d="
M311.462555,78.471329 
	C312.335571,76.723740 312.937561,74.698456 314.134491,74.245590 
	C317.180206,73.093224 320.491943,72.643929 324.100891,71.821205 
	C324.100891,76.597939 324.100891,81.015114 324.100891,85.811264 
	C326.515869,85.979919 328.617004,86.126656 331.142639,86.303040 
	C331.142639,88.639572 331.142639,91.017609 331.142639,93.816658 
	C329.137482,94.014153 326.916138,94.232933 324.308411,94.489769 
	C324.308411,101.628220 324.089722,108.604385 324.383392,115.558907 
	C324.587463,120.391197 326.828278,121.108917 332.804260,118.581856 
	C332.804260,121.904655 332.804260,125.134415 332.804260,128.419952 
	C321.086182,134.373474 312.220398,129.541550 311.579285,116.578468 
	C311.291748,110.765091 311.349274,104.923889 311.517883,99.103073 
	C311.607849,95.997154 311.511780,93.436440 307.365601,93.866928 
	C307.365601,91.291748 307.365601,89.152771 307.365601,86.724709 
	C308.667572,86.350441 310.007324,85.965309 311.462463,85.547020 
	C311.462463,83.217819 311.462463,81.063766 311.462555,78.471329 
z"/>
<path fill="#040404" opacity="1.000000" stroke="none" 
	d="
M278.845612,92.819275 
	C278.816833,90.527641 278.816833,88.700172 278.816833,86.872711 
	C279.183563,87.050621 279.550293,87.228531 279.917053,87.406441 
	C281.012695,85.748177 282.679962,84.224762 283.108307,82.409073 
	C285.357056,72.876556 291.606781,69.632736 302.866302,72.669884 
	C302.866302,75.218262 302.866302,77.838043 302.866302,80.889351 
	C299.834290,80.980522 295.018524,79.206673 296.151733,85.918251 
	C298.237366,86.032219 300.474152,86.154449 302.955872,86.290054 
	C302.955872,88.904839 302.955872,91.302902 302.955872,94.058311 
	C300.743805,94.058311 298.651367,94.058311 296.067017,94.058311 
	C296.067017,106.114494 296.067017,117.833183 296.067017,129.773834 
	C291.505859,129.773834 287.437164,129.773834 283.045074,129.773834 
	C283.045074,118.046906 283.045074,106.451714 283.045074,94.945221 
	C281.450745,94.309975 280.162567,93.796707 278.845612,92.819275 
z"/>
<path fill="#070707" opacity="1.000000" stroke="none" 
	d="
M225.789444,93.734528 
	C225.273331,94.758163 224.752777,95.826576 224.245377,95.820366 
	C223.134430,95.806763 221.927460,94.782532 220.942551,94.999817 
	C218.048416,95.638260 215.243561,96.681358 212.403748,97.566010 
	C213.935745,99.826477 215.186874,102.366661 217.079926,104.267570 
	C218.918350,106.113609 221.511032,107.180832 223.602661,108.808319 
	C227.592194,111.912537 229.471313,115.904793 228.327072,121.068199 
	C227.167358,126.301399 223.557785,129.376297 218.678009,129.868362 
	C212.343735,130.507080 205.896393,130.024368 199.167328,130.024368 
	C199.167328,126.383698 199.167328,123.311043 199.167328,120.633537 
	C202.785995,121.029076 206.400024,121.859268 209.944626,121.627586 
	C211.711578,121.512093 214.285324,119.739998 214.763550,118.185020 
	C215.171371,116.859032 213.474716,114.336784 212.047485,113.119141 
	C209.674713,111.094765 206.655045,109.851219 204.117416,107.992645 
	C199.232864,104.415192 197.598938,99.715248 199.106110,94.441948 
	C200.418198,89.851204 204.835983,86.359016 210.393356,86.064095 
	C215.324738,85.802391 220.280975,86.009201 225.790970,86.009201 
	C225.790970,89.085167 225.790970,91.188553 225.789444,93.734528 
z"/>
<path fill="#080808" opacity="1.000000" stroke="none" 
	d="
M170.110260,95.550735 
	C165.206497,95.340118 164.053940,98.185074 164.041122,101.920135 
	C164.009781,111.049385 164.030899,120.178810 164.030899,129.660278 
	C159.896576,129.660278 155.849899,129.660278 151.493942,129.660278 
	C151.493942,115.405296 151.493942,101.056885 151.493942,86.405235 
	C158.460327,85.168610 165.544388,88.297394 172.943359,84.855865 
	C172.943359,88.510826 173.085144,91.292526 172.834366,94.038376 
	C172.778214,94.653084 171.346375,95.142151 170.110260,95.550735 
z"/>
<path fill="#070707" opacity="1.000000" stroke="none" 
	d="
M177.192169,114.994484 
	C177.192169,105.212097 177.192169,95.928841 177.192169,86.381393 
	C181.560562,86.381393 185.487015,86.381393 189.823761,86.381393 
	C189.823761,100.655960 189.823761,115.030396 189.823761,129.709244 
	C185.993591,129.709244 181.910294,129.709244 177.192169,129.709244 
	C177.192169,125.020592 177.192169,120.257111 177.192169,114.994484 
z"/>
<path fill="#050505" opacity="1.000000" stroke="none" 
	d="
M178.580307,81.428696 
	C178.013931,79.073555 176.825790,75.819397 177.681244,75.140579 
	C179.778854,73.476089 182.852112,72.201462 185.468658,72.310440 
	C187.378540,72.389984 190.161636,74.569412 190.834351,76.433784 
	C192.189560,80.189552 189.312775,82.416718 185.964691,82.879089 
	C183.703232,83.191391 181.253708,82.141785 178.580307,81.428696 
z"/>
<path fill="#C6C6C6" opacity="1.000000" stroke="none" 
	d="
M345.545166,119.075531 
	C345.887756,119.550560 345.913086,119.946938 345.629913,120.696762 
	C344.853790,121.113274 344.386169,121.176323 343.737793,121.182205 
	C343.557037,121.125031 343.187195,121.041527 343.187195,121.041519 
	C342.597229,120.595009 342.007263,120.148491 341.417297,119.701981 
	C342.687500,119.466942 343.957703,119.231911 345.545166,119.075531 
z"/>
<path fill="#313131" opacity="1.000000" stroke="none" 
	d="
M343.111084,121.431084 
	C343.187195,121.041527 343.557037,121.125031 343.744568,121.348503 
	C343.932068,121.571976 343.935181,121.905113 343.941711,122.331543 
	C344.634460,123.010307 345.320679,123.262657 346.013214,123.731773 
	C346.019501,123.948547 346.289581,124.287933 346.289581,124.287933 
	C345.226501,124.715424 344.163391,125.142921 342.953827,125.273987 
	C342.883209,123.925255 342.959076,122.872948 343.111084,121.431084 
z"/>
<path fill="#AFAFAF" opacity="1.000000" stroke="none" 
	d="
M348.268250,127.872795 
	C348.212341,127.689140 348.395813,127.395462 348.819427,126.987411 
	C348.875580,127.169617 348.691589,127.466187 348.268250,127.872795 
z"/>
<path fill="#5A5A5A" opacity="1.000000" stroke="none" 
	d="
M346.559692,124.076454 
	C346.289581,124.287933 346.019501,123.948547 345.979187,123.331497 
	C345.270996,122.444679 344.603088,122.174896 343.935181,121.905121 
	C343.935181,121.905113 343.932068,121.571976 343.925293,121.405670 
	C344.386169,121.176323 344.853790,121.113274 345.671356,120.992813 
	C346.290802,121.911919 346.560333,122.888443 346.559692,124.076454 
z"/>
<path fill="#FCFCFC" opacity="1.000000" stroke="none" 
	d="
M34.121910,120.165787 
	C26.789181,119.541039 25.361855,118.417915 25.099920,111.841019 
	C24.822973,104.887184 24.808468,97.896851 25.192278,90.950806 
	C25.512163,85.161674 27.824453,83.649864 34.675331,83.566437 
	C41.667831,83.481293 43.903370,84.758362 44.392368,90.534042 
	C44.950405,97.125153 45.043530,103.795700 44.764942,110.407547 
	C44.406139,118.923187 43.142929,119.879974 34.121910,120.165787 
z"/>
<path fill="#FBFBFB" opacity="1.000000" stroke="none" 
	d="
M83.253738,96.587265 
	C84.452110,98.657799 85.856834,100.472450 86.012436,102.388550 
	C86.359566,106.663109 86.131134,110.989265 86.046600,115.292618 
	C85.968887,119.248451 83.659485,120.953804 79.923759,120.794281 
	C76.090675,120.630608 74.393394,118.738785 74.773979,114.672829 
	C75.127907,110.891731 74.845703,107.051453 74.850357,103.237236 
	C74.858391,96.652512 76.134628,95.565994 83.253738,96.587265 
z"/>
<path fill="#F6F6F6" opacity="1.000000" stroke="none" 
	d="
M250.763031,119.530792 
	C246.253769,112.337456 247.667389,104.968475 249.321564,97.779602 
	C249.582123,96.647202 252.912201,95.546883 254.746597,95.660957 
	C256.254700,95.754730 258.806061,97.584663 258.898285,98.797012 
	C259.347260,104.698288 259.612518,110.702705 258.986145,116.568466 
	C258.483551,121.274857 254.412155,120.275162 250.763031,119.530792 
z"/>
<path fill="#EBEBEB" opacity="1.000000" stroke="none" 
	d="
M124.065727,104.832062 
	C122.158249,104.832062 120.707283,104.832062 119.279449,104.832062 
	C118.957932,97.868935 120.408600,95.503868 124.789337,95.358002 
	C129.210144,95.210793 130.597092,97.264870 130.684555,104.832062 
	C128.633545,104.832062 126.577896,104.832062 124.065727,104.832062 
z"/>
<path fill="#989898" opacity="1.000000" stroke="none" 
	d="
M343.941711,122.331543 
	C344.603088,122.174896 345.270996,122.444679 345.972900,123.114731 
	C345.320679,123.262657 344.634460,123.010307 343.941711,122.331543 
z"/>
</svg>